 <svg  version="1.0" xmlns="http://www.w3.org/2000/svg"  width="300.000000pt" height="87.000000pt" viewBox="0 0 300.000000 87.000000"  preserveAspectRatio="xMidYMid meet">  <g transform="translate(0.000000,87.000000) scale(0.100000,-0.100000)" fill="#ffffff" stroke="none"> <path d="M375 823 c-11 -3 -31 -14 -44 -24 -13 -11 -32 -19 -42 -19 -22 0 -76 -44 -84 -69 -3 -10 -17 -24 -31 -32 -30 -16 -54 -57 -54 -94 0 -14 -7 -37 -16 -50 -20 -31 -21 -88 -1 -118 8 -12 12 -35 10 -53 -7 -44 20 -101 59 -124 19 -11 44 -33 56 -49 14 -19 38 -35 65 -42 23 -7 50 -19 60 -28 10 -9 37 -16 59 -16 60 0 78 28 78 120 l0 72 -38 27 c-21 14 -45 26 -54 26 -9 0 -25 8 -37 18 -23 19 -41 82 -22 82 6 0 11 -11 11 -24 0 -26 33 -56 61 -56 10 0 32 -12 50 -27 l32 -27 -5 67 c-3 55 -8 72 -28 91 -32 31 -73 44 -64 22 3 -9 13 -16 22 -16 8 0 12 -3 9 -6 -3 -4 3 -18 13 -32 24 -30 25 -38 5 -46 -21 -8 -69 22 -87 55 -15 25 -14 28 7 53 20 24 25 25 56 15 19 -7 42 -19 52 -27 16 -14 17 -7 17 127 0 83 -5 151 -11 163 -9 16 -70 51 -81 47 -2 -1 -12 -4 -23 -6z m60 -48 c19 -18 25 -35 25 -65 0 -25 -4 -39 -10 -35 -5 3 -10 18 -10 33 0 36 -26 72 -52 72 l-21 0 21 -23 c12 -13 22 -31 22 -40 0 -9 9 -32 21 -51 16 -27 18 -36 7 -36 -17 0 -46 32 -41 46 2 6 -1 23 -7 39 -9 24 -14 27 -40 21 -38 -7 -42 20 -5 34 14 5 25 14 25 20 0 19 41 10 65 -15z m-65 -64 c-27 -52 -1 -101 55 -101 19 0 37 -4 40 -10 4 -6 -9 -10 -32 -10 -43 0 -61 -11 -87 -53 -9 -16 -36 -36 -59 -46 -53 -23 -107 -82 -107 -119 -1 -24 -2 -25 -11 -9 -15 26 -3 65 32 99 35 36 26 58 -25 59 -30 0 -30 1 -8 12 19 8 30 7 57 -7 46 -25 79 -15 110 33 23 38 24 41 8 79 -16 43 -52 67 -84 57 -11 -4 -19 -2 -19 3 0 19 51 23 76 7 22 -14 24 -14 34 5 6 11 15 20 21 20 6 0 6 -7 -1 -19z m-75 -61 c20 -31 21 -57 3 -75 -7 -7 -8 1 -3 23 5 24 3 32 -7 30 -7 -2 -12 5 -12 15 1 9 -2 17 -7 17 -5 0 -9 5 -9 10 0 19 15 10 35 -20z m-34 -30 c10 -6 19 -18 19 -26 0 -13 -2 -13 -22 0 -12 9 -33 16 -45 16 -13 0 -23 5 -23 10 0 13 46 13 71 0z m-58 -23 c24 -9 21 -23 -5 -31 -35 -9 -38 -8 -38 17 0 26 11 42 19 29 3 -5 14 -11 24 -15z m-38 -97 c10 -16 -5 -50 -21 -50 -8 0 -15 5 -15 10 -1 6 -2 16 -3 23 -4 26 25 39 39 17z m159 -47 c-12 -27 -9 -80 6 -98 7 -9 35 -25 61 -36 43 -19 67 -44 55 -57 -3 -2 -25 5 -49 17 -56 27 -89 27 -124 -3 l-28 -24 49 -23 c27 -13 56 -34 64 -46 l14 -23 -48 21 c-27 12 -61 33 -77 47 l-27 26 35 33 c44 41 47 79 9 93 -19 7 -31 7 -40 -1 -8 -6 -14 -7 -14 -2 0 15 61 73 76 73 8 0 14 5 14 10 0 6 7 10 16 10 12 0 14 -5 8 -17z m-62 -106 c-11 -12 -25 -33 -31 -47 -10 -25 -10 -24 -10 7 -1 22 6 37 21 47 33 23 45 19 20 -7z m-66 -19 c4 -7 3 -8 -4 -4 -17 10 -15 0 6 -32 l17 -27 -25 16 c-29 19 -40 59 -16 59 8 0 18 -5 22 -12z m183 -79 c15 -12 32 -17 47 -13 13 3 24 2 24 -4 0 -5 -9 -12 -20 -15 -11 -3 -24 -16 -29 -29 -7 -19 -10 -20 -15 -7 -4 9 -6 22 -4 28 4 19 -61 52 -89 45 -30 -8 -30 4 0 16 26 10 54 4 86 -21z"/> <path d="M520 498 c0 -296 1 -310 18 -295 55 50 126 41 208 -27 46 -37 64 -46 96 -46 61 0 88 33 88 107 0 121 -54 365 -94 426 -13 19 -45 44 -83 63 -34 16 -71 38 -81 48 -11 9 -37 19 -58 22 -22 3 -51 7 -66 9 l-28 5 0 -312z m178 235 c35 -14 62 -27 60 -28 -2 -2 -28 3 -58 11 -30 8 -73 14 -96 14 -40 0 -72 19 -57 34 11 11 81 -4 151 -31z m-15 -31 c15 -6 7 -18 -48 -75 -36 -37 -65 -70 -65 -75 2 -26 95 -121 133 -135 13 -5 30 4 58 32 22 22 51 47 64 57 13 10 22 21 19 26 -3 4 -3 8 1 8 17 0 55 -182 58 -277 2 -93 -40 -110 -90 -36 l-32 46 22 11 c24 13 43 56 34 79 -3 9 -18 23 -32 33 -21 14 -30 15 -51 5 -14 -6 -28 -20 -31 -31 -7 -26 -7 -25 -51 9 -20 16 -56 35 -80 42 -43 12 -43 13 -37 48 4 20 6 78 6 129 -1 51 1 97 4 102 7 11 91 12 118 2z m125 -51 c16 -20 34 -62 29 -68 -8 -7 -97 89 -91 98 6 11 43 -7 62 -30z m-70 -33 c-2 -28 -7 -33 -28 -33 -21 0 -26 5 -28 33 -3 30 -1 32 28 32 29 0 31 -2 28 -32z m-63 -68 c0 -21 -5 -26 -32 -28 -31 -3 -33 -1 -33 28 0 29 2 31 33 28 27 -2 32 -7 32 -28z m135 0 c0 -27 -3 -30 -30 -30 -32 0 -47 18 -36 45 3 9 18 15 36 15 27 0 30 -3 30 -30z m-82 -42 c7 -7 12 -22 12 -35 0 -19 -5 -23 -30 -23 -26 0 -30 3 -30 29 0 25 9 37 31 40 3 1 10 -4 17 -11z m66 -141 c36 -26 -4 -84 -41 -61 -24 15 -27 38 -8 58 20 19 26 20 49 3z m-140 -16 c23 -26 17 -52 -16 -70 -24 -14 -28 -14 -47 3 -25 23 -27 49 -5 70 21 21 47 20 68 -3z m95 -83 c36 -21 88 -84 77 -95 -8 -8 -136 89 -136 104 0 18 15 16 59 -9z"/> <path d="M870 655 c0 -3 11 -42 24 -87 13 -46 31 -128 40 -183 9 -55 19 -115 22 -132 l5 -33 912 1 c525 0 903 4 891 9 -17 7 -24 21 -29 59 -4 27 -4 60 0 73 6 19 5 21 -6 11 -7 -7 -23 -13 -36 -13 -13 0 -23 -4 -23 -10 0 -5 9 -10 20 -10 11 0 20 -7 20 -15 0 -8 -9 -15 -20 -15 -11 0 -20 -4 -20 -10 0 -5 14 -10 30 -10 20 0 30 -5 30 -15 0 -11 -12 -15 -45 -15 l-45 0 0 65 0 65 48 0 c38 1 44 3 29 11 -11 7 -112 12 -254 14 -129 2 -238 6 -241 9 -3 3 -29 6 -59 6 l-53 0 0 80 0 80 56 0 c48 0 55 -2 52 -17 -3 -13 -13 -18 -36 -17 -26 2 -32 -2 -32 -18 0 -17 5 -19 25 -14 20 5 25 3 25 -14 0 -15 -7 -20 -25 -20 -16 0 -25 -6 -25 -15 0 -10 11 -15 35 -15 24 0 35 -5 35 -15 0 -8 5 -15 10 -15 6 0 10 4 10 9 0 6 -4 13 -10 16 -14 9 -12 71 2 95 10 16 10 24 0 41 -7 12 -12 22 -10 24 2 1 86 6 188 10 102 4 196 8 210 10 14 1 40 3 58 4 19 0 31 5 27 11 -6 10 -1835 15 -1835 5z m113 -41 c3 -4 -1 -23 -9 -43 -22 -55 -12 -100 29 -137 l35 -33 -23 -15 c-42 -28 -48 -22 -60 59 -3 22 -13 66 -21 99 -13 48 -13 60 -2 67 15 10 42 12 51 3z m665 -3 c10 -6 10 -11 -4 -21 -9 -8 -20 -25 -25 -37 -7 -18 -14 -22 -32 -18 -15 4 -32 -1 -50 -16 -35 -27 -48 -17 -18 15 13 13 22 35 21 48 -1 12 -2 26 -1 31 1 10 93 9 109 -2z m-470 -16 c2 -1 0 -13 -3 -27 -6 -21 -11 -24 -58 -23 -45 0 -52 -3 -52 -20 0 -14 13 -26 41 -40 66 -31 84 -53 84 -97 0 -22 -4 -47 -10 -57 -15 -29 -65 -44 -122 -38 -60 7 -62 9 -55 39 6 21 12 24 64 23 55 0 58 1 58 25 0 20 -9 30 -44 46 -56 27 -81 57 -81 98 0 41 17 64 55 75 25 8 113 5 123 -4z m330 0 c2 -2 0 -14 -3 -28 -6 -22 -10 -24 -48 -20 -60 7 -82 -19 -81 -95 0 -73 15 -102 54 -102 26 0 30 4 30 29 0 20 -6 30 -20 34 -12 3 -20 14 -20 26 0 19 6 21 50 21 l51 0 -3 -77 -3 -78 -43 -9 c-55 -12 -114 5 -137 40 -20 30 -30 117 -21 168 9 46 49 94 84 99 24 3 103 -2 110 -8z m-228 -147 l0 -153 -31 1 -30 1 -2 151 -2 152 33 0 32 0 0 -152z m475 122 c0 -9 -8 -14 -20 -13 -45 4 -67 -33 -49 -81 8 -20 44 -21 44 -1 0 8 -4 15 -10 15 -5 0 -10 7 -10 15 0 9 9 15 25 15 23 0 25 -4 25 -45 l0 -45 -44 0 c-54 0 -76 24 -76 82 0 52 29 80 78 76 25 -2 37 -8 37 -18z m134 -52 c26 -89 26 -88 1 -88 -11 0 -20 7 -20 15 0 9 -9 15 -24 15 -13 0 -26 -7 -30 -15 -3 -8 -14 -15 -25 -15 -19 0 -19 1 1 68 10 37 21 73 23 80 3 6 15 12 28 12 21 0 27 -9 46 -72z m103 25 c13 -40 17 -44 23 -28 26 72 28 75 51 75 23 0 24 -2 24 -80 0 -73 -2 -80 -20 -80 -17 0 -20 7 -21 43 l-1 42 -12 -35 c-18 -51 -41 -50 -59 2 l-15 43 -1 -47 c-1 -39 -4 -48 -18 -48 -16 0 -18 11 -18 80 -1 80 -1 80 25 80 23 0 29 -7 42 -47z m-394 -45 c16 -16 15 -23 -4 -42 -12 -12 -20 -13 -35 -6 -19 10 -26 40 -12 53 10 11 38 8 51 -5z m0 -100 c16 -16 15 -23 -4 -42 -12 -12 -20 -13 -35 -6 -10 6 -19 16 -19 23 0 16 20 37 35 37 6 0 16 -5 23 -12z m72 -73 c0 -51 -3 -65 -15 -65 -12 0 -15 14 -15 65 0 51 3 65 15 65 12 0 15 -14 15 -65z m67 23 l22 -43 0 43 c1 30 5 42 16 42 12 0 15 -14 15 -65 0 -77 -18 -87 -49 -27 l-20 37 -1 -37 c0 -27 -4 -38 -15 -38 -12 0 -15 14 -15 65 0 78 16 86 47 23z m153 27 c0 -8 -7 -15 -15 -15 -11 0 -15 -12 -15 -50 0 -38 -4 -50 -15 -50 -11 0 -15 12 -15 50 0 38 -4 50 -15 50 -8 0 -15 7 -15 15 0 11 12 15 45 15 33 0 45 -4 45 -15z m90 0 c0 -9 -9 -15 -25 -15 -14 0 -25 -4 -25 -10 0 -5 9 -10 20 -10 11 0 20 -7 20 -15 0 -8 -9 -15 -20 -15 -11 0 -20 -4 -20 -10 0 -5 11 -10 25 -10 16 0 25 -6 25 -15 0 -11 -11 -15 -40 -15 l-40 0 0 58 c0 32 3 62 7 65 3 4 21 7 40 7 23 0 33 -5 33 -15z m50 -34 c0 -42 3 -50 20 -53 34 -5 23 -23 -15 -26 l-35 -3 0 65 c0 52 3 66 15 66 11 0 15 -12 15 -49z m90 -1 c0 -47 2 -50 25 -50 16 0 25 -6 25 -15 0 -11 -11 -15 -40 -15 l-40 0 0 65 c0 51 3 65 15 65 11 0 15 -12 15 -50z m90 -15 c0 -51 -3 -65 -15 -65 -12 0 -15 14 -15 65 0 51 3 65 15 65 12 0 15 -14 15 -65z m101 50 c0 -5 -12 -11 -25 -13 -29 -4 -42 -33 -26 -62 15 -29 34 -25 26 5 -5 21 -3 25 14 25 18 0 21 -5 18 -32 -3 -29 -7 -33 -34 -36 -39 -4 -58 18 -58 65 0 23 7 40 19 50 22 15 66 14 66 -2z m99 0 c0 -9 -9 -15 -25 -15 -14 0 -25 -4 -25 -10 0 -5 9 -10 20 -10 11 0 20 -7 20 -15 0 -8 -9 -15 -20 -15 -29 0 -25 -18 5 -22 41 -5 34 -23 -10 -26 l-40 -3 -2 66 -2 65 40 0 c28 0 39 -4 39 -15z m65 -22 l20 -38 3 38 c2 23 8 37 17 37 10 0 13 -17 13 -65 0 -56 -3 -65 -18 -65 -12 0 -23 12 -31 35 -7 19 -16 35 -19 35 -3 0 -4 -16 -2 -35 3 -27 1 -35 -12 -35 -13 0 -16 12 -16 65 0 76 16 86 45 28z m155 22 c0 -9 -9 -15 -25 -15 -18 0 -26 -7 -31 -24 -8 -32 2 -46 32 -46 15 0 24 -6 24 -15 0 -24 -56 -19 -74 7 -33 46 -7 108 45 108 19 0 29 -5 29 -15z m-1025 -80 c0 -32 -12 -41 -50 -37 l-35 4 21 30 c25 34 64 36 64 3z m-259 -20 c18 -13 17 -14 -18 -15 -36 0 -47 8 -31 23 10 11 28 8 49 -8z"/> <path d="M1837 534 c-13 -13 -7 -44 8 -44 16 0 17 5 6 33 -3 10 -10 15 -14 11z"/> <path d="M71 201 c-30 -42 -27 -91 7 -124 46 -44 104 -59 250 -65 167 -6 260 6 597 73 149 30 308 59 355 65 215 27 222 29 80 25 -124 -4 -316 -28 -431 -54 -154 -35 -494 -58 -614 -42 -145 20 -219 61 -217 121 0 16 -1 30 -3 30 -2 0 -13 -13 -24 -29z m311 -152 c132 -2 119 -17 -15 -18 -84 -1 -172 13 -182 29 -2 4 16 4 40 -1 25 -5 95 -9 157 -10z"/> </g> </svg> 